<?xml version="1.0" encoding="iso-8859-1"?>
<!-- Generator: Adobe Illustrator 19.0.0, SVG Export Plug-In . SVG Version: 6.00 Build 0)  -->
<svg version="1.1" id="Layer_1" xmlns="http://www.w3.org/2000/svg" xmlns:xlink="http://www.w3.org/1999/xlink" x="0px" y="0px"
	 viewBox="0 0 508 508" style="enable-background:new 0 0 508 508;" xml:space="preserve">
<g>
	<g>
		<path d="M432.4,381.2v-254c0-2.4-1.6-4-4-4H79.2c-2.4,0-4,1.6-4,4v253.6c0,2.4,1.6,4,4,4h349.6
			C430.8,384.8,432.8,383.2,432.4,381.2z M424.4,376.8H83.2V131.2h341.2V376.8z"/>
	</g>
</g>
<g>
	<g>
		<path d="M389.2,162.8h-16c-2.4,0-4,1.6-4,4c0,2.4,1.6,4,4,4h12v166.8h-262V170.8h190.4c2.4,0,4-1.6,4-4c0-2.4-1.6-4-4-4H119.2
			c-2.4,0-4,1.6-4,4v174.4c0,2.4,1.6,4,4,4h269.6c2.4,0,4-1.6,4.4-3.6V166.8C393.2,164.4,391.6,162.8,389.2,162.8z"/>
	</g>
</g>
<g>
	<g>
		<path d="M428.8,47.6c-2.4,0-4,1.6-4,4v55.6c0,2.4,1.6,4,4,4c2,0,4-2,4-4V51.6C432.8,49.2,431.2,47.6,428.8,47.6z"/>
	</g>
</g>
<g>
	<g>
		<path d="M79.2,47.6c-2.4,0-4,1.6-4,4v55.6c0,2.4,1.6,4,4,4c2.4,0,4-2,4-4V51.6C83.2,49.2,81.6,47.6,79.2,47.6z"/>
	</g>
</g>
<g>
	<g>
		<path d="M428.8,396.8c-2.4,0-4,1.6-4,4v55.6c0,2.4,1.6,4,4,4c2,0,4-2,4-4v-55.6C432.8,398.4,431.2,396.8,428.8,396.8z"/>
	</g>
</g>
<g>
	<g>
		<path d="M504,376.8h-55.6c-2.4,0-4,1.6-4,4c0,2.4,1.6,4,4,4H504c2.4,0,4-1.6,4-4C508,378.4,506.4,376.8,504,376.8z"/>
	</g>
</g>
<g>
	<g>
		<path d="M59.6,376.8H4c-2.4,0-4,1.6-4,4c0,2.4,1.6,4,4,4h55.6c2,0,4-1.6,4-4C63.6,378.4,62,376.8,59.6,376.8z"/>
	</g>
</g>
<g>
	<g>
		<path d="M504,123.2h-55.6c-2.4,0-4,1.6-4,4c0,2.4,1.6,4,4,4H504c2.4,0,4-1.6,4-4C508,124.8,506.4,123.2,504,123.2z"/>
	</g>
</g>
<g>
	<g>
		<path d="M59.6,123.2H4c-2.4,0-4,1.6-4,4c0,2.4,1.6,4,4,4h55.6c2,0,4-1.6,4-4C63.6,124.8,62,123.2,59.6,123.2z"/>
	</g>
</g>
<g>
	<g>
		<path d="M79.2,396.8c-2.4,0-4,1.6-4,4v55.6c0,2.4,1.6,4,4,4c2.4,0,4-2,4-4v-55.6C83.2,398.4,81.6,396.8,79.2,396.8z"/>
	</g>
</g>
<g>
</g>
<g>
</g>
<g>
</g>
<g>
</g>
<g>
</g>
<g>
</g>
<g>
</g>
<g>
</g>
<g>
</g>
<g>
</g>
<g>
</g>
<g>
</g>
<g>
</g>
<g>
</g>
<g>
</g>
</svg>
